<!DOCTYPE svg PUBLIC "-//W3C//DTD SVG 20010904//EN" "http://www.w3.org/TR/2001/REC-SVG-20010904/DTD/svg10.dtd">
<svg version="1.0" xmlns="http://www.w3.org/2000/svg" width="128px" height="128px" viewBox="0 0 1280 1280" preserveAspectRatio="xMidYMid meet">
<g id="layer1" fill="#000000" stroke="none">
 <path d="M740 1003 c-23 -27 -112 -119 -198 -205 l-155 -157 193 -198 c106 -109 199 -202 207 -207 11 -6 28 4 59 35 24 24 44 48 44 53 0 6 -69 79 -152 163 l-153 153 153 153 c83 84 152 157 152 162 0 13 -82 95 -96 95 -6 0 -30 -21 -54 -47z"/>
 </g>

</svg>